<svg width="82" height="18" viewBox="0 0 82 18" fill="none" xmlns="http://www.w3.org/2000/svg">
<path fill-rule="evenodd" clip-rule="evenodd" d="M7.01539 0.534592C9.32483 0.540775 11.2471 1.81667 12.1245 3.81016C12.3613 4.3483 12.5156 4.92645 12.5825 5.52707C12.6328 5.97802 12.6406 6.2756 12.6114 6.69611C12.4703 8.73461 11.4033 10.5173 9.7244 11.785C9.71367 11.7932 9.71483 11.8086 9.72663 11.8152C9.77503 11.842 9.82328 11.8688 9.87121 11.896C11.0516 12.5611 12.0077 13.2554 12.7417 14.046C12.7925 14.1006 12.8419 14.1556 12.8903 14.2108C12.8982 14.22 12.9128 14.2199 12.9206 14.2108C12.9683 14.155 13.0172 14.0996 13.0674 14.0446C13.7938 13.2476 14.7429 12.5451 15.9167 11.8695C16.3529 11.6185 16.8024 11.381 17.3171 11.1249C17.3955 11.0858 17.49 11.1391 17.4905 11.2224L17.5031 13.81C17.5034 13.8562 17.473 13.8979 17.4271 13.9142C15.6173 14.5555 14.3275 16.1838 14.2593 17.3504C14.2559 17.4089 14.2042 17.4546 14.1419 17.4548L11.7173 17.4654C11.646 17.4656 11.5863 17.4139 11.5815 17.3469C11.5005 16.2128 10.4506 15.1079 8.51705 14.0183C8.1353 13.8033 7.73461 13.5956 7.26964 13.3691C7.26647 13.3675 7.26319 13.3658 7.26001 13.3642C6.55037 12.998 5.495 12.6108 4.15687 11.6425C2.58972 10.401 1.5904 8.69364 1.43628 6.74487C1.40315 6.32457 1.40786 6.02699 1.45366 5.57556C1.51471 4.97437 1.66342 4.39489 1.89484 3.85469C2.75243 1.85356 4.66208 0.561163 6.97121 0.53492L6.98232 0.534629L7.01539 0.534592ZM3.44637 12.9883C4.00043 13.4033 4.69428 13.7921 5.52801 14.1552C5.6525 14.2093 5.66355 14.3609 5.54806 14.4286C3.92196 15.3819 3.0404 16.3308 2.96717 17.3084C2.96095 17.3912 2.88244 17.4555 2.78802 17.456L0.447073 17.4654C0.345227 17.4657 0.262604 17.3924 0.26571 17.3032C0.304423 16.1678 0.830568 15.1307 1.7437 14.1962C2.16299 13.7671 2.65462 13.3668 3.21918 12.9836C3.28649 12.9377 3.38155 12.9397 3.44637 12.9883ZM7.0056 3.00933C5.78348 3.02245 4.80712 3.68329 4.33743 4.7792C4.20135 5.09694 4.11233 5.44405 4.07513 5.81051C4.0431 6.12657 4.04055 6.2846 4.06236 6.56138C4.19405 8.22659 5.29683 9.64319 7.0293 10.4824C7.03062 10.4828 7.03205 10.4835 7.03332 10.4842C7.03909 10.4869 7.04586 10.487 7.05163 10.4842C7.05295 10.4834 7.05438 10.4827 7.05565 10.4821C8.77976 9.62805 9.86846 8.20202 9.98374 6.53575C10.0029 6.25861 9.99887 6.10047 9.96358 5.78484C9.92284 5.4188 9.83037 5.0724 9.69102 4.75586C9.21045 3.66414 8.22782 3.0117 7.0056 3.00933Z" fill="#005FF9"/>
<path d="M24.8458 12.3887C24.8458 12.4809 24.814 12.5627 24.752 12.6286C24.6874 12.6971 24.6003 12.7314 24.498 12.7314H23.629C23.5338 12.7314 23.4497 12.6973 23.3828 12.6313C23.3158 12.5653 23.2812 12.4825 23.2812 12.3887V5.90565C23.2812 5.80739 23.3124 5.72226 23.375 5.65582C23.4396 5.58731 23.5267 5.55295 23.629 5.55295H24.4475C24.6148 5.55295 24.7495 5.63707 24.8432 5.79669L26.7008 9.19245L28.5598 5.79394C28.6519 5.63708 28.7867 5.55295 28.954 5.55295H29.7624C29.8636 5.55295 29.9512 5.58652 30.0187 5.65306C30.0862 5.71956 30.1202 5.80585 30.1202 5.90565V12.3887C30.1202 12.4895 30.0854 12.5753 30.0158 12.639C29.9484 12.7007 29.862 12.7314 29.7624 12.7314H28.8934C28.7982 12.7314 28.7141 12.6973 28.6472 12.6313C28.5803 12.5653 28.5457 12.4825 28.5457 12.3887V8.52618L27.3405 10.782C27.2492 10.962 27.1025 11.0584 26.913 11.0584H26.4886C26.3074 11.0584 26.1599 10.9643 26.0518 10.7839L24.8458 8.52618V12.3887ZM34.2521 12.831C33.3113 12.831 32.5752 12.5938 32.0488 12.1165C31.5197 11.6367 31.2569 10.9152 31.2569 9.95877V5.90565C31.2569 5.80739 31.2882 5.72226 31.3507 5.65582C31.4153 5.58731 31.5024 5.55295 31.6047 5.55295H32.5343C32.6355 5.55295 32.7231 5.58652 32.7906 5.65306C32.8581 5.71956 32.8922 5.80585 32.8922 5.90565V9.95877C32.8922 10.459 33.0104 10.8288 33.2426 11.0729C33.4739 11.3161 33.8046 11.4385 34.242 11.4385C34.6793 11.4385 35.01 11.3161 35.2413 11.0729C35.4735 10.8288 35.5917 10.459 35.5917 9.95877V5.90565C35.5917 5.80585 35.6258 5.71956 35.6933 5.65306C35.7608 5.58652 35.8484 5.55295 35.9496 5.55295H36.8792C36.9815 5.55295 37.0686 5.58731 37.1332 5.65582C37.1958 5.72226 37.227 5.80739 37.227 5.90565V9.95877C37.227 10.915 36.966 11.6365 36.4405 12.1162C35.9175 12.5937 35.1862 12.831 34.2521 12.831ZM43.1068 11.3289C43.2081 11.3289 43.2957 11.3625 43.3632 11.429C43.4301 11.495 43.4647 11.5778 43.4647 11.6717V12.3887C43.4647 12.4825 43.4301 12.5653 43.3632 12.6313C43.2957 12.6978 43.2081 12.7314 43.1068 12.7314H38.7115C38.6163 12.7314 38.5322 12.6973 38.4653 12.6313C38.3983 12.5653 38.3637 12.4825 38.3637 12.3887V5.89569C38.3637 5.79489 38.3986 5.70902 38.4681 5.64539C38.5349 5.58419 38.6178 5.55295 38.7115 5.55295H39.6613C39.762 5.55295 39.8479 5.5844 39.9125 5.64803C39.9771 5.71172 40.009 5.79637 40.009 5.89569V11.3289H43.1068ZM46.1256 12.3887C46.1256 12.4809 46.0939 12.5627 46.0318 12.6286C45.9672 12.6971 45.8801 12.7314 45.7778 12.7314H44.828C44.7328 12.7314 44.6487 12.6973 44.5818 12.6313C44.5148 12.5653 44.4802 12.4825 44.4802 12.3887V7.00523H42.7162C42.621 7.00523 42.5369 6.97114 42.4699 6.90512C42.4024 6.83863 42.3684 6.75233 42.3684 6.65254V5.90565C42.3684 5.80739 42.3996 5.72226 42.4622 5.65582C42.5268 5.58731 42.6139 5.55295 42.7162 5.55295H47.8795C47.9807 5.55295 48.0683 5.58652 48.1358 5.65306C48.2033 5.71956 48.2373 5.80585 48.2373 5.90565V6.65254C48.2373 6.75233 48.2033 6.83863 48.1358 6.90512C48.0683 6.97167 47.9807 7.00523 47.8795 7.00523H46.1256V12.3887ZM49.6477 12.7314C49.5526 12.7314 49.4685 12.6973 49.4016 12.6313C49.3346 12.5653 49.3 12.4825 49.3 12.3887V5.89569C49.3 5.79489 49.3349 5.70902 49.4044 5.64539C49.4713 5.58419 49.5542 5.55295 49.6477 5.55295H50.6178C50.7185 5.55295 50.8044 5.5844 50.869 5.64803C50.9336 5.71172 50.9656 5.79637 50.9656 5.89569V12.3887C50.9656 12.4809 50.9338 12.5627 50.8717 12.6286C50.8072 12.6971 50.72 12.7314 50.6178 12.7314H49.6477ZM56.9058 11.3289C57.0074 11.3289 57.0947 11.3625 57.1624 11.429C57.2296 11.495 57.264 11.5778 57.264 11.6717V12.3887C57.264 12.4825 57.2296 12.5653 57.1624 12.6313C57.0947 12.6978 57.0074 12.7314 56.9058 12.7314H52.5107C52.4155 12.7314 52.3314 12.6973 52.2644 12.6313C52.1975 12.5653 52.1629 12.4825 52.1629 12.3887V5.89569C52.1629 5.79489 52.1977 5.70902 52.2672 5.64539C52.3341 5.58419 52.4171 5.55295 52.5107 5.55295H53.4602C53.5613 5.55295 53.647 5.5844 53.7115 5.64803C53.7766 5.71172 53.8083 5.79637 53.8083 5.89569V11.3289H56.9058ZM60.8963 12.831C59.9488 12.831 59.2066 12.5939 58.6733 12.1169C58.1384 11.6382 57.8581 10.9309 57.8305 10.0022C57.8237 9.80826 57.8205 9.52502 57.8205 9.15216C57.8205 8.77262 57.8237 8.4861 57.8305 8.2926C57.8586 7.38307 58.1453 6.67912 58.6934 6.18745C59.2399 5.69743 59.9758 5.45337 60.8963 5.45337C61.8105 5.45337 62.5442 5.69743 63.0939 6.18724C63.6457 6.6789 63.9345 7.38297 63.962 8.29213C63.9758 8.67828 63.9821 8.9648 63.9821 9.15216C63.9821 9.33284 63.9758 9.61603 63.962 10.0017C63.9345 10.931 63.6525 11.6384 63.114 12.1172C62.5776 12.5939 61.8369 12.831 60.8963 12.831ZM60.8963 11.4683C61.3206 11.4683 61.6502 11.3458 61.8919 11.1013C62.1342 10.8565 62.267 10.4725 62.2866 9.94537C62.2998 9.54816 62.3067 9.28006 62.3067 9.1422C62.3067 8.991 62.2998 8.72307 62.2866 8.33935C62.2675 7.81883 62.1311 7.43676 61.8824 7.18852C61.6338 6.94012 61.3068 6.81602 60.8963 6.81602C60.4789 6.81602 60.1488 6.94022 59.9001 7.18852C59.652 7.43644 59.5192 7.81799 59.506 8.33914C59.4996 8.53026 59.4959 8.79803 59.4959 9.1422C59.4959 9.4797 59.4996 9.74753 59.506 9.94633C59.5192 10.4666 59.6504 10.8484 59.8954 11.0963C60.1408 11.3442 60.472 11.4683 60.8963 11.4683ZM68.1446 9.85342C68.0493 9.85342 67.9652 9.81927 67.8986 9.7533C67.8314 9.68734 67.797 9.60449 67.797 9.51067V8.96295C67.797 8.86908 67.8314 8.78628 67.8986 8.72026C67.9652 8.6543 68.0493 8.6202 68.1446 8.6202H70.5697C70.6707 8.6202 70.7585 8.65377 70.8257 8.72026C70.8929 8.78628 70.9273 8.86908 70.9273 8.96295V10.0185C70.9273 10.5878 70.7982 11.0859 70.5384 11.5111C70.2787 11.9368 69.9094 12.2642 69.4333 12.492C68.9603 12.7183 68.4091 12.831 67.7806 12.831C66.8262 12.831 66.0782 12.587 65.5417 12.0963C65.0048 11.6051 64.7196 10.9217 64.6847 10.052C64.6778 9.85797 64.6746 9.54826 64.6746 9.12225C64.6746 8.69628 64.6778 8.38657 64.6847 8.19276C64.7127 7.34257 65 6.67012 65.5481 6.18221C66.094 5.69557 66.84 5.45337 67.7806 5.45337C68.4154 5.45337 68.9646 5.56089 69.4275 5.77705C69.8904 5.99316 70.2427 6.26268 70.4829 6.58631C70.7236 6.91063 70.8522 7.23352 70.867 7.55879C70.867 7.64561 70.8358 7.7219 70.7754 7.78151C70.7141 7.84176 70.6337 7.87162 70.5395 7.87162H69.4783C69.3894 7.87162 69.3158 7.8524 69.2608 7.80909C69.2127 7.77082 69.173 7.71443 69.1376 7.63534C69.0503 7.40875 68.8979 7.21557 68.6778 7.05447C68.462 6.89644 68.1641 6.81602 67.7806 6.81602C67.3346 6.81602 66.9918 6.9317 66.7469 7.16099C66.5035 7.38869 66.3728 7.74937 66.3601 8.24951C66.3538 8.44057 66.3501 8.73165 66.3501 9.12225C66.3501 9.50628 66.3538 9.79735 66.3601 9.99604C66.3734 10.5087 66.5051 10.8796 66.7522 11.1139C67.0008 11.3496 67.3452 11.4683 67.7906 11.4683C68.2451 11.4683 68.6038 11.3504 68.873 11.1159C69.1381 10.8851 69.2719 10.5352 69.2719 10.0584V9.85342H68.1446ZM72.1795 12.7314C72.0843 12.7314 72.0002 12.6973 71.9335 12.6313C71.8663 12.5653 71.8319 12.4825 71.8319 12.3887V5.89569C71.8319 5.79489 71.8668 5.70902 71.9361 5.64539C72.0028 5.58419 72.0859 5.55295 72.1795 5.55295H73.1497C73.2503 5.55295 73.3365 5.5844 73.401 5.64803C73.4656 5.71172 73.4973 5.79637 73.4973 5.89569V12.3887C73.4973 12.4809 73.4656 12.5627 73.4037 12.6286C73.3391 12.6971 73.2518 12.7314 73.1497 12.7314H72.1795ZM76.2594 12.3887C76.2594 12.4809 76.2277 12.5627 76.1652 12.6286C76.1007 12.6971 76.0139 12.7314 75.9113 12.7314H75.0426C74.9474 12.7314 74.8633 12.6973 74.7961 12.6313C74.7294 12.5653 74.6945 12.4825 74.6945 12.3887V5.90565C74.6945 5.80739 74.7257 5.72226 74.7887 5.65582C74.8532 5.58731 74.94 5.55295 75.0426 5.55295H75.8309C75.9965 5.55295 76.1282 5.62919 76.2123 5.7698L78.9083 9.89497V5.90565C78.9083 5.80739 78.9395 5.72226 79.0019 5.65582C79.0664 5.58731 79.1537 5.55295 79.2558 5.55295H80.125C80.2261 5.55295 80.3139 5.58652 80.3811 5.65306C80.4488 5.71956 80.4827 5.80585 80.4827 5.90565V12.3787C80.4827 12.4785 80.4488 12.5648 80.3811 12.6313C80.3144 12.6973 80.2303 12.7314 80.1351 12.7314H79.3368C79.1648 12.7314 79.0294 12.6557 78.9458 12.5154L76.2594 8.4833V12.3887Z" fill="#242424"/>
</svg>
